<?xml version="1.0" encoding="UTF-8"?><!DOCTYPE svg PUBLIC "-//W3C//DTD SVG 1.1//EN" "http://www.w3.org/Graphics/SVG/1.1/DTD/svg11.dtd"><svg xmlns="http://www.w3.org/2000/svg" xmlns:xlink="http://www.w3.org/1999/xlink"><symbol id="arrow-down-icon" viewBox="0 0 24 24">
<path d="M18.7099 8.2101C18.6169 8.11638 18.5063 8.04198 18.3845 7.99121C18.2626 7.94044 18.1319 7.91431 17.9999 7.91431C17.8679 7.91431 17.7372 7.94044 17.6153 7.99121C17.4934 8.04198 17.3828 8.11638 17.2899 8.2101L12.7099 12.7901C12.6169 12.8838 12.5063 12.9582 12.3845 13.009C12.2626 13.0598 12.1319 13.0859 11.9999 13.0859C11.8679 13.0859 11.7372 13.0598 11.6153 13.009C11.4934 12.9582 11.3828 12.8838 11.2899 12.7901L6.70988 8.2101C6.61691 8.11638 6.50631 8.04198 6.38445 7.99121C6.26259 7.94044 6.13189 7.91431 5.99988 7.91431C5.86787 7.91431 5.73716 7.94044 5.6153 7.99121C5.49344 8.04198 5.38284 8.11638 5.28988 8.2101C5.10363 8.39747 4.99908 8.65092 4.99908 8.9151C4.99908 9.17929 5.10363 9.43274 5.28988 9.6201L9.87988 14.2101C10.4424 14.7719 11.2049 15.0875 11.9999 15.0875C12.7949 15.0875 13.5574 14.7719 14.1199 14.2101L18.7099 9.6201C18.8961 9.43274 19.0007 9.17929 19.0007 8.9151C19.0007 8.65092 18.8961 8.39747 18.7099 8.2101Z" fill="currentColor"/>
</symbol><symbol id="arrow-up-icon" viewBox="0 0 24 24">
<path d="M18.7098 15.79C18.6169 15.8837 18.5063 15.9581 18.3844 16.0089C18.2625 16.0597 18.1318 16.0858 17.9998 16.0858C17.8678 16.0858 17.7371 16.0597 17.6152 16.0089C17.4934 15.9581 17.3828 15.8837 17.2898 15.79L12.7098 11.21C12.6169 11.1163 12.5063 11.0419 12.3844 10.9911C12.2625 10.9404 12.1318 10.9142 11.9998 10.9142C11.8678 10.9142 11.7371 10.9404 11.6152 10.9911C11.4934 11.0419 11.3828 11.1163 11.2898 11.21L6.70982 15.79C6.61685 15.8837 6.50625 15.9581 6.38439 16.0089C6.26253 16.0597 6.13183 16.0858 5.99982 16.0858C5.8678 16.0858 5.7371 16.0597 5.61524 16.0089C5.49338 15.9581 5.38278 15.8837 5.28982 15.79C5.10356 15.6027 4.99902 15.3492 4.99902 15.085C4.99902 14.8208 5.10356 14.5674 5.28982 14.38L9.87982 9.79003C10.4423 9.22823 11.2048 8.91267 11.9998 8.91267C12.7948 8.91267 13.5573 9.22823 14.1198 9.79003L18.7098 14.38C18.8961 14.5674 19.0006 14.8208 19.0006 15.085C19.0006 15.3492 18.8961 15.6027 18.7098 15.79Z" fill="#0C0C0C"/>
</symbol></svg>